<svg width="264" height="78" viewBox="0 0 264 78" fill="none" xmlns="http://www.w3.org/2000/svg">
<g clip-path="url(#clip0_3_594)">
<path d="M72.8599 22.6631H85.1871C93.0461 22.6631 99.5383 27.2102 99.5383 37.5925V39.7741C99.5383 50.2352 93.4667 54.94 85.4237 54.94H72.8599V22.6631ZM79.7463 28.5244V49.0524H85.0294C89.4977 49.0524 92.4941 46.1348 92.4941 39.6426V37.9342C92.4941 31.442 89.34 28.5244 84.7929 28.5244H79.7463ZM103.192 28.8398H108.711L109.605 34.9115C110.657 30.7849 113.337 28.577 118.2 28.577H119.909V35.5423H117.07C111.471 35.5423 110.105 37.4873 110.105 43.007V55.0189H103.297V28.8398H103.192ZM121.275 42.4551V41.7191C121.275 32.9665 126.874 28.1827 134.496 28.1827C142.276 28.1827 147.717 32.9665 147.717 41.7191V42.4551C147.717 51.05 142.434 55.676 134.496 55.676C126.059 55.5971 121.275 51.0763 121.275 42.4551ZM140.752 42.3762V41.7191C140.752 36.8565 138.307 33.939 134.417 33.939C130.606 33.939 128.083 36.62 128.083 41.7191V42.3762C128.083 47.0811 130.527 49.7621 134.417 49.7621C138.307 49.6832 140.752 47.0811 140.752 42.3762ZM151.292 28.8398H156.969L157.626 33.7813C158.993 30.4695 161.911 28.1827 166.221 28.1827C172.871 28.1827 177.261 32.9665 177.261 41.8242V42.5602C177.261 51.1551 172.398 55.7023 166.221 55.7023C162.095 55.7023 159.256 53.8361 157.863 50.8397V64.0606H151.213L151.292 28.8398ZM170.348 42.3762V41.798C170.348 36.5937 167.667 34.0178 164.092 34.0178C160.281 34.0178 157.758 36.9354 157.758 41.798V42.2973C157.758 46.9234 160.202 49.8409 164.013 49.8409C167.93 49.7621 170.348 47.2651 170.348 42.3762ZM187.327 50.1826L186.749 54.9663H180.914V20.0872H187.564V33.4659C189.036 30.0489 191.953 28.1827 196.08 28.1827C202.336 28.2616 206.962 32.5722 206.962 41.246V42.0608C206.962 50.7346 202.572 55.7023 195.922 55.7023C191.533 55.5971 188.694 53.5733 187.327 50.1826ZM199.97 42.0608V41.4037C199.97 36.62 197.368 33.939 193.715 33.939C189.982 33.939 187.38 36.9354 187.38 41.4825V42.0608C187.38 46.9234 189.903 49.7621 193.636 49.7621C197.631 49.7621 199.97 47.2651 199.97 42.0608ZM209.879 42.4551V41.7191C209.879 32.9665 215.478 28.1827 223.1 28.1827C230.88 28.1827 236.321 32.9665 236.321 41.7191V42.4551C236.321 51.05 230.959 55.676 223.1 55.676C214.663 55.5971 209.879 51.0763 209.879 42.4551ZM229.408 42.3762V41.7191C229.408 36.8565 226.964 33.939 223.074 33.939C219.263 33.939 216.739 36.62 216.739 41.7191V42.3762C216.739 47.0811 219.184 49.7621 223.074 49.7621C226.99 49.6832 229.408 47.0811 229.408 42.3762ZM245.232 41.4037L236.058 28.8398H243.917L249.2 36.6988L254.562 28.8398H262.342L253.038 41.3248L262.842 54.9663H255.141L249.148 46.2925L243.313 54.9663H235.27L245.232 41.4037Z" fill="#868686"/>
<path d="M30.4896 22.6637L15.2448 32.3888L30.4896 42.114L15.2448 51.8391L-3.05176e-05 42.0614L15.2448 32.3363L-3.05176e-05 22.6637L15.2448 12.9385L30.4896 22.6637ZM15.1659 54.9669L30.4108 45.2418L45.6556 54.9669L30.4108 64.6921L15.1659 54.9669ZM30.4896 42.0614L45.7344 32.3363L30.4896 22.6637L45.6556 12.9385L60.9004 22.6637L45.6556 32.3888L60.9004 42.114L45.6556 51.8391L30.4896 42.0614Z" fill="#868686"/>
</g>
<defs>
<clipPath id="clip0_3_594">
<rect width="263.62" height="77.6303" fill="white"/>
</clipPath>
</defs>
</svg>
