<svg width="220" height="78" viewBox="0 0 220 78" fill="none" xmlns="http://www.w3.org/2000/svg">
<g clip-path="url(#clip0_3_672)">
<path d="M159.197 22.7256H154.875V55.0812H172.407V51.0632H159.197V22.7256ZM189.096 49.4066C188.007 50.5345 186.18 51.6623 183.721 51.6623C180.418 51.6623 179.083 50.041 179.083 47.891C179.083 44.6837 181.296 43.1329 186.04 43.1329C186.918 43.1329 188.359 43.2386 189.096 43.3796V49.4066ZM184.634 29.81C181.121 29.81 177.923 31.0436 175.429 33.1231L176.975 35.8018C178.732 34.7796 180.91 33.7223 184.037 33.7223C187.586 33.7223 189.167 35.555 189.167 38.6214V40.2075C188.464 40.0665 187.059 39.9608 186.145 39.9608C178.556 39.9608 174.726 42.6394 174.726 48.2083C174.726 53.2132 177.783 55.7156 182.421 55.7156C185.548 55.7156 188.534 54.2705 189.553 51.9443L190.326 55.1164H193.383V38.5509C193.348 33.2993 191.064 29.81 184.634 29.81ZM207.331 51.8386C205.715 51.8386 204.275 51.6271 203.185 51.1337V36.1895C204.661 34.9559 206.488 34.0747 208.807 34.0747C212.988 34.0747 214.604 37.0354 214.604 41.8288C214.639 48.6312 212.004 51.8386 207.331 51.8386ZM209.158 29.81C205.294 29.81 203.185 32.4534 203.185 32.4534V28.2592V22.7256H198.934V54.3058C201.042 55.1869 203.958 55.6804 207.121 55.6804C215.202 55.6804 219.102 50.4992 219.102 41.5468C219.102 34.4977 215.518 29.81 209.158 29.81ZM112.045 26.2502C115.875 26.2502 118.37 27.519 119.986 28.8231L121.848 25.5805C119.318 23.36 115.875 22.1617 112.256 22.1617C103.051 22.1617 96.5861 27.801 96.5861 39.1501C96.5861 51.0632 103.543 55.7156 111.518 55.7156C115.524 55.7156 118.897 54.764 121.11 53.8476L121.005 41.1239V37.0706H109.164V41.0886H116.718L116.824 50.746C115.84 51.2394 114.118 51.6271 111.8 51.6271C105.405 51.6271 101.119 47.5738 101.119 39.0796C101.119 30.4444 105.546 26.2502 112.045 26.2502ZM142.543 22.7256H138.291V28.1534V46.9394C138.291 52.191 140.575 55.6804 147.005 55.6804C147.883 55.6804 148.761 55.6099 149.605 55.4336V51.6271C149.007 51.7328 148.34 51.7681 147.637 51.7681C144.089 51.7681 142.507 49.9353 142.507 46.8689V33.9337H149.605V30.4092H142.507L142.543 22.7256ZM127.54 55.0812H131.791V30.4092H127.54V55.0812ZM127.54 26.9903H131.791V22.7256H127.54V26.9903Z" fill="#868686"/>
<path d="M38.5076 74.3952L52.7022 30.6201H24.3131L38.5076 74.3952Z" fill="#868686"/>
<path d="M38.5074 74.3952L24.3129 30.6201H4.46164L38.5074 74.3952Z" fill="#868686"/>
<path d="M4.46244 30.6201L0.140848 43.9077C-0.245636 45.1061 0.175983 46.4454 1.1949 47.1855L38.473 74.36L4.46244 30.6201Z" fill="#868686"/>
<path d="M4.46164 30.6204H24.348L15.7751 4.25662C15.3535 2.88203 13.421 2.88203 12.9994 4.25662L4.46164 30.6204Z" fill="#868686"/>
<path d="M38.5078 74.3952L52.7023 30.6201H72.5887L38.5078 74.3952Z" fill="#868686"/>
<path d="M72.5541 30.6201L76.8757 43.9077C77.2622 45.1061 76.8405 46.4454 75.8216 47.1855L38.5435 74.36L72.5541 30.6201Z" fill="#868686"/>
<path d="M72.5535 30.6203H52.6671L61.2049 4.25649C61.6617 2.91715 63.559 2.91715 63.9806 4.25649L72.5535 30.6203Z" fill="#868686"/>
</g>
<defs>
<clipPath id="clip0_3_672">
<rect width="219.953" height="77.6303" fill="white"/>
</clipPath>
</defs>
</svg>
